# xmcd
#
# Track frame offsets: 
#        150
#        18576
#        28071
#        40245
#        57532
#        69058
#        83019
#        98119
#        109407
#        130438
#
# Disc length: 2081 seconds
#
# Revision: 0
# Processed by: cddbd v1.5.2PL0 Copyright (c) Steve Scherf et al.
# Submitted via: ExactAudioCopyFreeDBPlugin 1.0
#
DISCID=84081f0a
DTITLE=Franc Cinelli - I Have Not Yet Begun To Fight
DYEAR=2013
DGENRE=Folk/Rock
TTITLE0=Shot Of Life
TTITLE1=Rose Garden
TTITLE2=Abracadabra
TTITLE3=I'm Your Man
TTITLE4=Fat Charlie Sings The Blues
TTITLE5=Fall Into Heaven
TTITLE6=A Bigger Picture
TTITLE7=The Impossible Break Free
TTITLE8=Passerà
TTITLE9=Julius Plays His Winning Ace
EXTD=
EXTT0=
EXTT1=
EXTT2=
EXTT3=
EXTT4=
EXTT5=
EXTT6=
EXTT7=
EXTT8=
EXTT9=
PLAYORDER=
